<svg id="Disegni_e_Immagini_Num_Penna__4" data-name="Disegni e Immagini_Num_Penna__4" xmlns="http://www.w3.org/2000/svg" viewBox="0 0 70.87 70.87"><defs><style>.cls-1{fill:none;stroke:#000;stroke-linecap:round;stroke-linejoin:round;}</style></defs><title>2020-07-31 ICONE WEB</title><g id="LINE"><line class="cls-1" x1="17.48" y1="50.26" x2="17.48" y2="22.33"/></g><g id="LINE-2" data-name="LINE"><line class="cls-1" x1="57.39" y1="22.33" x2="57.39" y2="50.26"/></g><g id="LINE-3" data-name="LINE"><line class="cls-1" x1="20.14" y1="19.67" x2="54.73" y2="19.67"/></g><g id="LINE-4" data-name="LINE"><line class="cls-1" x1="18.81" y1="51.59" x2="20.94" y2="51.59"/></g><g id="LINE-5" data-name="LINE"><line class="cls-1" x1="22.27" y1="50.26" x2="22.27" y2="30.31"/></g><g id="LINE-6" data-name="LINE"><line class="cls-1" x1="52.6" y1="30.31" x2="52.6" y2="50.26"/></g><g id="LINE-7" data-name="LINE"><line class="cls-1" x1="23.6" y1="28.98" x2="51.27" y2="28.98"/></g><g id="LINE-8" data-name="LINE"><line class="cls-1" x1="22.27" y1="32.17" x2="52.6" y2="32.17"/></g><g id="LINE-9" data-name="LINE"><line class="cls-1" x1="53.93" y1="51.59" x2="56.06" y2="51.59"/></g><g id="LINE-10" data-name="LINE"><line class="cls-1" x1="41.69" y1="36.09" x2="33.18" y2="36.09"/></g><g id="LINE-11" data-name="LINE"><line class="cls-1" x1="29.34" y1="40.01" x2="30.89" y2="37.39"/></g><g id="LINE-12" data-name="LINE"><line class="cls-1" x1="27.01" y1="43.26" x2="27.47" y2="47.73"/></g><g id="LINE-13" data-name="LINE"><line class="cls-1" x1="31.99" y1="48.92" x2="42.88" y2="48.92"/></g><g id="LINE-14" data-name="LINE"><line class="cls-1" x1="28.52" y1="41.06" x2="27.39" y2="42.19"/></g><g id="LINE-15" data-name="LINE"><line class="cls-1" x1="28.79" y1="48.92" x2="28.79" y2="50.66"/></g><g id="LINE-16" data-name="LINE"><line class="cls-1" x1="29.33" y1="51.2" x2="31.45" y2="51.2"/></g><g id="LINE-17" data-name="LINE"><line class="cls-1" x1="31.99" y1="48.92" x2="31.99" y2="50.66"/></g><g id="LINE-18" data-name="LINE"><line class="cls-1" x1="45.53" y1="40.01" x2="43.98" y2="37.39"/></g><g id="LINE-19" data-name="LINE"><line class="cls-1" x1="47.86" y1="43.26" x2="47.4" y2="47.73"/></g><g id="LINE-20" data-name="LINE"><line class="cls-1" x1="46.34" y1="41.06" x2="47.47" y2="42.19"/></g><g id="LINE-21" data-name="LINE"><line class="cls-1" x1="46.07" y1="48.92" x2="46.07" y2="50.66"/></g><g id="LINE-22" data-name="LINE"><line class="cls-1" x1="45.54" y1="51.2" x2="43.41" y2="51.2"/></g><g id="LINE-23" data-name="LINE"><line class="cls-1" x1="42.88" y1="48.92" x2="42.88" y2="50.66"/></g><g id="ARC"><path class="cls-1" d="M17.48,50.26a1.32,1.32,0,0,0,1.33,1.33"/></g><g id="ARC-2" data-name="ARC"><path class="cls-1" d="M20.94,51.59a1.33,1.33,0,0,0,1.33-1.33"/></g><g id="ARC-3" data-name="ARC"><path class="cls-1" d="M52.6,50.26a1.32,1.32,0,0,0,1.33,1.33"/></g><g id="ARC-4" data-name="ARC"><path class="cls-1" d="M56.06,51.59a1.33,1.33,0,0,0,1.33-1.33"/></g><g id="ARC-5" data-name="ARC"><path class="cls-1" d="M20.14,19.67a2.66,2.66,0,0,0-2.66,2.66"/></g><g id="ARC-6" data-name="ARC"><path class="cls-1" d="M57.39,22.33a2.66,2.66,0,0,0-2.66-2.66"/></g><g id="ARC-7" data-name="ARC"><path class="cls-1" d="M23.6,29a1.33,1.33,0,0,0-1.33,1.33"/></g><g id="ARC-8" data-name="ARC"><path class="cls-1" d="M52.6,30.31A1.34,1.34,0,0,0,51.27,29"/></g><g id="ARC-9" data-name="ARC"><path class="cls-1" d="M33.18,36.09a2.68,2.68,0,0,0-2.29,1.3"/></g><g id="ARC-10" data-name="ARC"><path class="cls-1" d="M28.52,41.06A5.51,5.51,0,0,0,29.34,40"/></g><g id="ARC-11" data-name="ARC"><path class="cls-1" d="M27.39,42.19A1.33,1.33,0,0,0,27,43.26"/></g><g id="ARC-12" data-name="ARC"><path class="cls-1" d="M27.47,47.73a1.32,1.32,0,0,0,1.32,1.19"/></g><g id="ARC-13" data-name="ARC"><path class="cls-1" d="M28.79,50.66a.54.54,0,0,0,.54.54"/></g><g id="ARC-14" data-name="ARC"><path class="cls-1" d="M31.45,51.2a.54.54,0,0,0,.54-.54"/></g><g id="ARC-15" data-name="ARC"><path class="cls-1" d="M44,37.39a2.68,2.68,0,0,0-2.29-1.3"/></g><g id="ARC-16" data-name="ARC"><path class="cls-1" d="M45.53,40a5.88,5.88,0,0,0,.81,1.05"/></g><g id="ARC-17" data-name="ARC"><path class="cls-1" d="M47.86,43.26a1.31,1.31,0,0,0-.39-1.07"/></g><g id="ARC-18" data-name="ARC"><path class="cls-1" d="M46.07,48.92a1.33,1.33,0,0,0,1.33-1.19"/></g><g id="ARC-19" data-name="ARC"><path class="cls-1" d="M45.54,51.2a.54.54,0,0,0,.53-.54"/></g><g id="ARC-20" data-name="ARC"><path class="cls-1" d="M42.88,50.66a.54.54,0,0,0,.53.54"/></g></svg>