<svg id="Disegni_e_Immagini_Num_Penna__4" data-name="Disegni e Immagini_Num_Penna__4" xmlns="http://www.w3.org/2000/svg" viewBox="0 0 70.87 70.87"><defs><style>.cls-1,.cls-2{fill:none;stroke:#000;stroke-linecap:round;stroke-linejoin:round;stroke-width:0.7px;}.cls-2{stroke-dasharray:3.17 2.11;}</style></defs><title>2020-07-08 ICONE WEB</title><g id="LINE"><line class="cls-1" x1="25.78" y1="52.99" x2="45.72" y2="52.99"/></g><g id="LINE-2" data-name="LINE"><line class="cls-1" x1="18.12" y1="39.09" x2="51.09" y2="39.09"/></g><g id="LINE-3" data-name="LINE"><line class="cls-1" x1="53.96" y1="40.77" x2="53.96" y2="39.66"/></g><g id="LINE-4" data-name="LINE"><line class="cls-1" x1="52.24" y1="39.09" x2="52.24" y2="19.33"/></g><g id="LINE-5" data-name="LINE"><line class="cls-1" x1="51.09" y1="39.09" x2="51.09" y2="19.33"/></g><g id="LINE-6" data-name="LINE"><line class="cls-1" x1="38.79" y1="17.81" x2="44.18" y2="19.79"/></g><g id="LINE-7" data-name="LINE"><line class="cls-2" x1="40.99" y1="20.15" x2="34.62" y2="37.54"/></g><g id="LINE-8" data-name="LINE"><line class="cls-2" x1="42.82" y1="20.56" x2="41.21" y2="38.56"/></g><g id="LINE-9" data-name="LINE"><line class="cls-2" x1="39.34" y1="19.28" x2="28.43" y2="34.79"/></g><g id="LINE-10" data-name="LINE"><line class="cls-1" x1="18.11" y1="41.34" x2="53.39" y2="41.34"/></g><g id="LINE-11" data-name="LINE"><line class="cls-1" x1="52.24" y1="39.09" x2="53.39" y2="39.09"/></g><g id="LINE-12" data-name="LINE"><line class="cls-1" x1="25.78" y1="52.99" x2="25.78" y2="55.2"/></g><g id="LINE-13" data-name="LINE"><line class="cls-1" x1="45.72" y1="52.99" x2="45.72" y2="55.2"/></g><g id="LINE-14" data-name="LINE"><line class="cls-1" x1="17.54" y1="40.77" x2="17.54" y2="39.66"/></g><g id="ELLIPSE"><path class="cls-1" d="M18.11,41.34c0,6.44,3.44,11.65,7.67,11.65"/></g><g id="ELLIPSE-2" data-name="ELLIPSE"><path class="cls-1" d="M45.72,53c4.23,0,7.67-5.21,7.67-11.65"/></g><g id="ARC"><path class="cls-1" d="M18.12,39.09a.58.58,0,0,0-.58.57"/></g><g id="ARC-2" data-name="ARC"><path class="cls-1" d="M54,39.66a.58.58,0,0,0-.57-.57"/></g><g id="ARC-3" data-name="ARC"><path class="cls-1" d="M52.24,19.33A5.74,5.74,0,0,0,41.85,16"/></g><g id="ARC-4" data-name="ARC"><path class="cls-1" d="M41.85,16a2.87,2.87,0,0,0-3.06,1.85"/></g><g id="ARC-5" data-name="ARC"><path class="cls-1" d="M51.09,19.33a4.58,4.58,0,0,0-8.09-3"/></g><g id="ARC-6" data-name="ARC"><path class="cls-1" d="M44.18,19.79A2.86,2.86,0,0,0,43,16.36"/></g><g id="ARC-7" data-name="ARC"><path class="cls-1" d="M53.39,41.34a.58.58,0,0,0,.57-.57"/></g><g id="ARC-8" data-name="ARC"><path class="cls-1" d="M17.54,40.77a.58.58,0,0,0,.57.57"/></g></svg>