<svg width="92" height="59" viewBox="0 0 92 59" fill="none" xmlns="http://www.w3.org/2000/svg">
<path d="M91 56.999H75.906L74.606 47.249H77.5C77.914 47.249 78.25 46.914 78.25 46.499C78.25 46.085 77.914 45.749 77.5 45.749H61.75C61.336 45.749 61 46.085 61 46.499C61 46.914 61.336 47.249 61.75 47.249H64.644L63.344 56.999H46.464L44.751 53.574C46.992 53.038 49.801 51.826 51.171 49.085C53.052 45.323 53.414 40.167 53.483 38.249H55C55.414 38.249 55.75 37.914 55.75 37.499C55.75 37.085 55.414 36.749 55 36.749H52.75H13V8.25C13 4.941 15.691 2.25 19 2.25C22.077 2.25 24.619 4.579 24.96 7.566C22.439 7.949 20.5 10.125 20.5 12.75C20.5 13.164 20.836 13.5 21.25 13.5H30.25C30.252 13.5 30.253 13.5 30.255 13.5C30.669 13.5 31.005 13.164 31.005 12.75C31.005 12.718 31.003 12.687 30.999 12.656C30.953 10.048 28.992 7.902 26.467 7.555C26.114 3.744 22.901 0.75 19 0.75C14.864 0.75 11.5 4.115 11.5 8.25V36.749H10C9.586 36.749 9.25 37.085 9.25 37.499C9.25 37.914 9.586 38.249 10 38.249H11.517C11.586 40.167 11.949 45.323 13.829 49.085C15.2 51.826 18.008 53.038 20.249 53.574L18.537 56.999H1C0.586 56.999 0.25 57.335 0.25 57.749C0.25 58.164 0.586 58.499 1 58.499H18.997C18.998 58.499 18.998 58.5 18.999 58.5C19 58.5 19.001 58.499 19.002 58.499H45.996C45.998 58.499 46 58.5 46 58.5C46 58.5 46.001 58.499 46.002 58.499H91C91.414 58.499 91.75 58.164 91.75 57.749C91.75 57.335 91.414 56.999 91 56.999ZM29.425 12H22.075C22.424 10.291 23.939 9 25.75 9C27.561 9 29.076 10.291 29.425 12ZM74.394 56.999H70.372V47.249H73.095L74.394 56.999ZM66.156 47.249H68.871V56.999H64.856L66.156 47.249ZM15.171 48.414C13.456 44.984 13.096 40.099 13.021 38.249H51.98C51.905 40.099 51.544 44.984 49.83 48.414C47.817 52.439 41.563 52.499 41.501 52.499H23.501C23.437 52.499 17.19 52.453 15.171 48.414ZM21.783 53.861C22.743 53.993 23.413 53.999 23.5 53.999H41.5C41.587 53.999 42.257 53.993 43.217 53.861L44.786 56.999H20.213L21.783 53.861Z" fill="black"/>
<path d="M34.75 29.25H48.25C48.664 29.25 49 28.914 49 28.5C49 28.086 48.664 27.75 48.25 27.75H46.75V21.75C46.75 21.336 46.414 21 46 21H42.25V19.5C42.25 19.086 41.914 18.75 41.5 18.75H37C36.586 18.75 36.25 19.086 36.25 19.5V27.75H34.75C34.336 27.75 34 28.086 34 28.5C34 28.914 34.336 29.25 34.75 29.25ZM45.25 22.5V27.75H42.25V22.5H45.25ZM37.75 20.25H40.75V21.75V27.75H37.75V20.25Z" fill="black"/>
<path d="M61.75 35.999H65.714L65.508 37.39C65.473 37.631 65.557 37.875 65.734 38.043C65.875 38.177 66.06 38.249 66.251 38.249C66.3 38.249 66.349 38.245 66.397 38.235L77.647 35.985C78.044 35.905 78.307 35.525 78.241 35.126L73.741 8.126C73.737 8.106 73.733 8.087 73.728 8.067C73.102 5.561 71.606 4.124 69.625 4.124C67.591 4.124 66.016 5.647 65.516 8.099C65.514 8.108 65.512 8.117 65.51 8.125L61.01 35.125C60.974 35.343 61.035 35.565 61.178 35.733C61.321 35.901 61.529 35.999 61.75 35.999ZM66.987 8.387C67.125 7.721 67.713 5.625 69.625 5.625C71.221 5.625 71.941 7.129 72.266 8.404L76.641 34.656L67.149 36.554L68.993 24.109C69.054 23.699 68.77 23.318 68.36 23.257C68.323 23.251 68.286 23.249 68.25 23.249C67.885 23.249 67.564 23.517 67.509 23.889L65.938 34.498H62.636L66.987 8.387Z" fill="black"/>
</svg>
