<svg width="96" height="96" viewBox="0 0 96 96" fill="none" xmlns="http://www.w3.org/2000/svg">
<path d="M90 51C90 47.686 87.314 45 84 45H80L78 39C75 30 66 30 66 30H60H36H30C30 30 21 30 18 39L16 45H12C8.686 45 6 47.686 6 51C6 53.737 7.832 56.045 10.336 56.766C7.687 58.967 6 62.287 6 66V78C6 79.734 7.116 81.133 9 82.262V93C9 94.657 10.343 96 12 96H21C22.657 96 24 94.657 24 93V86.05C32.643 86.999 42.33 87 48 87C53.67 87 63.358 87 72 86.05V93C72 94.657 73.343 96 75 96H84C85.657 96 87 94.657 87 93V82.262C88.883 81.132 90 79.734 90 78V66C90 62.287 88.313 58.967 85.664 56.766C88.168 56.045 90 53.737 90 51ZM20.846 39.949C21.783 37.139 23.558 35.054 26.286 33.881C27.287 33.451 28.888 33 30 33H66C67.112 33 68.713 33.451 69.714 33.881C72.443 35.055 74.218 37.14 75.154 39.949L79.838 54H78.06H78.03H78H75H21H18H17.969H17.939H16.162L20.846 39.949ZM9 51C9 49.343 10.343 48 12 48H15L13 54H12C10.343 54 9 52.657 9 51ZM21 93H12V83.639C14.502 84.535 17.615 85.192 21 85.674V93ZM84 93H75V85.674C78.384 85.192 81.498 84.535 84 83.639V93ZM87 66V78C87 78.085 86.989 78.167 86.964 78.248C86.498 79.761 82.35 81.065 81.044 81.424C76.495 82.673 71.334 83.188 66.633 83.514C60.427 83.944 54.218 84 48 84C41.782 84 35.573 83.944 29.367 83.514C24.666 83.188 19.506 82.673 14.956 81.424C13.651 81.065 9.502 79.76 9.036 78.248C9.01 78.167 9 78.085 9 78V66C9 61.03 13.03 57 18 57H21H75H78C82.97 57 87 61.03 87 66ZM84 54H83L81 48H84C85.657 48 87 49.343 87 51C87 52.657 85.657 54 84 54ZM18 63C14.686 63 12 65.686 12 69C12 72.314 14.686 75 18 75C21.314 75 24 72.314 24 69C24 65.686 21.314 63 18 63ZM18 72C16.343 72 15 70.657 15 69C15 67.343 16.343 66 18 66C19.657 66 21 67.343 21 69C21 70.657 19.657 72 18 72ZM93.773 12.106L48.773 0.105994C48.243 -0.0350059 47.757 -0.0350059 47.227 0.105994L2.227 12.106C0.895 12.461 0 13.627 0 15.005V18C0 18.963 0.409 19.792 1.172 20.379C1.936 20.966 2.842 21.147 3.773 20.899L48 9.10499L92.227 20.899C93.158 21.147 94.064 20.966 94.828 20.379C95.591 19.792 96 18.963 96 18V15.005C96 13.627 95.105 12.461 93.773 12.106ZM93 18L48 5.99999L3 18V15.005L48 3.00499L93 15.005V18ZM78 63C74.686 63 72 65.686 72 69C72 72.314 74.686 75 78 75C81.314 75 84 72.314 84 69C84 65.686 81.314 63 78 63ZM78 72C76.343 72 75 70.657 75 69C75 67.343 76.343 66 78 66C79.657 66 81 67.343 81 69C81 70.657 79.657 72 78 72ZM64.5 66H31.5C30.672 66 30 66.672 30 67.5C30 68.328 30.672 69 31.5 69H64.5C65.328 69 66 68.328 66 67.5C66 66.672 65.328 66 64.5 66ZM61.5 72H34.5C33.672 72 33 72.672 33 73.5C33 74.328 33.672 75 34.5 75H61.5C62.328 75 63 74.328 63 73.5C63 72.672 62.328 72 61.5 72Z" fill="black"/>
</svg>
