<svg width="84" height="66" viewBox="0 0 84 66" fill="none" xmlns="http://www.w3.org/2000/svg">
<path d="M75.5 5H71L66.5 0H48.6L44.1 5H8.49998C3.89998 5 0.0999756 8.8 0.0999756 13.4V57.3C0.0999756 61.9 3.89998 65.7 8.49998 65.7H75.6C80.2 65.7 84 61.9 84 57.3V13.4C83.9 8.8 80.2 5 75.5 5ZM80.9 57.3C80.9 60.3 78.5 62.7 75.5 62.7H8.49998C5.49998 62.7 3.09998 60.3 3.09998 57.3V13.4C3.09998 10.4 5.49998 8 8.49998 8H45.5L50 3H65.2L69.7 8H75.5C78.5 8 80.9 10.4 80.9 13.4V57.3Z" fill="black"/>
<path d="M42 18.7C32.4 18.7 24.7 26.5 24.7 36C24.7 45.5 32.4 53.3 42 53.3C51.6 53.3 59.3 45.6 59.3 36C59.3 26.4 51.6 18.7 42 18.7ZM42 50.3C34.1 50.3 27.7 43.9 27.7 36C27.7 28.1 34.1 21.7 42 21.7C49.9 21.7 56.3 28.1 56.3 36C56.3 43.9 49.9 50.3 42 50.3Z" fill="black"/>
<path d="M17.4 24.7C19.4434 24.7 21.1 23.0435 21.1 21C21.1 18.9566 19.4434 17.3 17.4 17.3C15.3565 17.3 13.7 18.9566 13.7 21C13.7 23.0435 15.3565 24.7 17.4 24.7Z" fill="black"/>
</svg>
