<svg id="Disegni_e_Immagini_Num_Penna__4" data-name="Disegni e Immagini_Num_Penna__4" xmlns="http://www.w3.org/2000/svg" viewBox="0 0 70.87 70.87"><defs><style>.cls-1{fill:none;stroke:#000;stroke-linecap:round;stroke-linejoin:round;}</style></defs><title>2020-07-31 ICONE WEB</title><g id="LINE"><line class="cls-1" x1="19.05" y1="29.04" x2="19.05" y2="48.35"/></g><g id="LINE-2" data-name="LINE"><line class="cls-1" x1="54.97" y1="48.35" x2="54.97" y2="29.04"/></g><g id="LINE-3" data-name="LINE"><line class="cls-1" x1="21.75" y1="51.04" x2="52.28" y2="51.04"/></g><g id="LINE-4" data-name="LINE"><line class="cls-1" x1="21.75" y1="26.35" x2="52.28" y2="26.35"/></g><g id="LINE-5" data-name="LINE"><line class="cls-1" x1="31.59" y1="22.76" x2="42.43" y2="22.76"/></g><g id="LINE-6" data-name="LINE"><line class="cls-1" x1="22.87" y1="32.86" x2="25.56" y2="32.86"/></g><g id="LINE-7" data-name="LINE"><line class="cls-1" x1="25.56" y1="32.86" x2="25.56" y2="30.17"/></g><g id="LINE-8" data-name="LINE"><line class="cls-1" x1="25.56" y1="30.17" x2="22.87" y2="30.17"/></g><g id="LINE-9" data-name="LINE"><line class="cls-1" x1="22.87" y1="30.17" x2="22.87" y2="32.86"/></g><g id="LINE-10" data-name="LINE"><line class="cls-1" x1="29.83" y1="26.35" x2="30.27" y2="23.87"/></g><g id="LINE-11" data-name="LINE"><line class="cls-1" x1="44.2" y1="26.35" x2="43.76" y2="23.87"/></g><g id="ARC"><path class="cls-1" d="M21.75,26.35A2.7,2.7,0,0,0,19.05,29"/></g><g id="ARC-2" data-name="ARC"><path class="cls-1" d="M55,29a2.69,2.69,0,0,0-2.69-2.69"/></g><g id="ARC-3" data-name="ARC"><path class="cls-1" d="M52.28,51A2.68,2.68,0,0,0,55,48.35"/></g><g id="ARC-4" data-name="ARC"><path class="cls-1" d="M19.05,48.35A2.69,2.69,0,0,0,21.75,51"/></g><g id="CIRCLE"><path class="cls-1" d="M26.51,38.7A10.51,10.51,0,1,1,37,49.2a10.51,10.51,0,0,1-10.5-10.5Z"/></g><g id="ARC-5" data-name="ARC"><path class="cls-1" d="M31.59,22.76a1.34,1.34,0,0,0-1.32,1.11"/></g><g id="ARC-6" data-name="ARC"><path class="cls-1" d="M43.76,23.87a1.34,1.34,0,0,0-1.33-1.11"/></g></svg>