<svg id="Disegni_e_Immagini_Num_Penna__4" data-name="Disegni e Immagini_Num_Penna__4" xmlns="http://www.w3.org/2000/svg" viewBox="0 0 70.87 70.87"><defs><style>.cls-1{fill:none;stroke:#000;stroke-linecap:round;stroke-linejoin:round;}</style></defs><title>2020-07-31 ICONE WEB</title><g id="LINE"><line class="cls-1" x1="18.35" y1="50.85" x2="51.72" y2="50.85"/></g><g id="LINE-2" data-name="LINE"><line class="cls-1" x1="19.97" y1="27.9" x2="36.48" y2="27.9"/></g><g id="LINE-3" data-name="LINE"><line class="cls-1" x1="16.38" y1="48.59" x2="18.99" y2="28.77"/></g><g id="LINE-4" data-name="LINE"><line class="cls-1" x1="53.69" y1="48.59" x2="51.09" y2="28.77"/></g><g id="LINE-5" data-name="LINE"><line class="cls-1" x1="17.15" y1="42.73" x2="36.93" y2="30.18"/></g><g id="LINE-6" data-name="LINE"><line class="cls-1" x1="16.46" y1="47.97" x2="26.74" y2="41.44"/></g><g id="LINE-7" data-name="LINE"><line class="cls-1" x1="49.12" y1="50.85" x2="30.52" y2="39.04"/></g><g id="LINE-8" data-name="LINE"><line class="cls-1" x1="41.56" y1="50.85" x2="26.74" y2="41.44"/></g><g id="LINE-9" data-name="LINE"><line class="cls-1" x1="49.41" y1="27.9" x2="50.1" y2="27.9"/></g><g id="LINE-10" data-name="LINE"><line class="cls-1" x1="30.52" y1="39.04" x2="38.17" y2="34.19"/></g><g id="ARC"><path class="cls-1" d="M20,27.9a1,1,0,0,0-1,.87"/></g><g id="ARC-2" data-name="ARC"><path class="cls-1" d="M16.38,48.59a2,2,0,0,0,1.71,2.24l.26,0"/></g><g id="ARC-3" data-name="ARC"><path class="cls-1" d="M51.72,50.85a2,2,0,0,0,2-2,1.14,1.14,0,0,0,0-.26"/></g><g id="ARC-4" data-name="ARC"><path class="cls-1" d="M51.09,28.77a1,1,0,0,0-1-.87"/></g><g id="ARC-5" data-name="ARC"><path class="cls-1" d="M49.77,23.24a6.83,6.83,0,0,0-13.65,0"/></g><g id="ARC-6" data-name="ARC"><path class="cls-1" d="M36.12,23.24a30.2,30.2,0,0,0,6.82,19.12"/></g><g id="ARC-7" data-name="ARC"><path class="cls-1" d="M42.94,42.36a30.15,30.15,0,0,0,6.83-19.12"/></g><g id="CIRCLE"><path class="cls-1" d="M40.45,23.24a2.5,2.5,0,1,1,2.49,2.5,2.5,2.5,0,0,1-2.49-2.5Z"/></g></svg>