<svg width="20" height="26" viewBox="0 0 20 26" fill="none" xmlns="http://www.w3.org/2000/svg">
<path fill-rule="evenodd" clip-rule="evenodd" d="M16 25V26H4.00002V25H9.00002C6.80002 22.43 1.00002 14.433 1.00002 9.99999C0.944164 8.80327 1.13872 7.60807 1.57125 6.49084C2.00378 5.37362 2.66476 4.35899 3.51189 3.51186C4.35902 2.66472 5.37365 2.00375 6.49087 1.57122C7.6081 1.13869 8.8033 0.944134 10 0.999994C11.1967 0.944134 12.392 1.13869 13.5092 1.57122C14.6264 2.00375 15.641 2.66472 16.4882 3.51186C17.3353 4.35899 17.9963 5.37362 18.4288 6.49084C18.8613 7.60807 19.0559 8.80327 19 9.99999C19 14.413 13.231 22.39 11 25H16ZM10 1.99999C11.0662 1.94034 12.133 2.10642 13.1307 2.48735C14.1283 2.86829 15.0343 3.45551 15.7894 4.21062C16.5445 4.96573 17.1317 5.87172 17.5127 6.86935C17.8936 7.86698 18.0597 8.93378 18 9.99999C18 14.772 10 24.52 10 24.52C10 24.52 2.00002 14.772 2.00002 9.99999C1.94037 8.93378 2.10645 7.86698 2.48739 6.86935C2.86832 5.87172 3.45554 4.96573 4.21065 4.21062C4.96576 3.45551 5.87175 2.86829 6.86938 2.48735C7.86701 2.10642 8.93381 1.94034 10 1.99999V1.99999ZM10 6.36999C10.718 6.36999 11.4198 6.58289 12.0167 6.98176C12.6137 7.38063 13.079 7.94756 13.3537 8.61085C13.6285 9.27415 13.7003 10.004 13.5603 10.7082C13.4202 11.4123 13.0745 12.0591 12.5668 12.5668C12.0592 13.0745 11.4124 13.4202 10.7082 13.5602C10.0041 13.7003 9.27418 13.6284 8.61088 13.3537C7.94759 13.0789 7.38066 12.6137 6.98179 12.0167C6.58292 11.4198 6.37002 10.7179 6.37002 9.99999C6.37002 9.03726 6.75247 8.11395 7.43323 7.4332C8.11398 6.75244 9.03729 6.36999 10 6.36999V6.36999ZM10 7.09999C10.5736 7.09999 11.1343 7.27008 11.6112 7.58873C12.0881 7.90739 12.4598 8.36031 12.6793 8.89021C12.8988 9.42012 12.9562 10.0032 12.8443 10.5658C12.7324 11.1283 12.4562 11.645 12.0506 12.0506C11.6451 12.4562 11.1283 12.7324 10.5658 12.8443C10.0032 12.9562 9.42015 12.8987 8.89024 12.6792C8.36034 12.4598 7.90742 12.0881 7.58876 11.6111C7.27011 11.1342 7.10002 10.5736 7.10002 9.99999C7.10002 9.23087 7.40556 8.49324 7.94941 7.94938C8.49327 7.40553 9.2309 7.09999 10 7.09999V7.09999Z" fill="black"/>
</svg>
