<svg id="Layer_1" data-name="Layer 1" xmlns="http://www.w3.org/2000/svg" viewBox="0 0 82.2 82.22"><title>phone</title><path d="M80.7,27.6A43.38,43.38,0,0,0,71,13,44.92,44.92,0,0,0,56.4,3.3,49.44,49.44,0,0,0,48.1.8a1.91,1.91,0,0,0-2.2,1.5,1.91,1.91,0,0,0,1.5,2.2A39,39,0,0,1,55,6.7a38.42,38.42,0,0,1,13.3,8.9,41.43,41.43,0,0,1,8.9,13.3,34.65,34.65,0,0,1,2.2,7.6A1.82,1.82,0,0,0,81.2,38h.3A1.91,1.91,0,0,0,83,35.8,36,36,0,0,0,80.7,27.6Z" transform="translate(-1.49 -0.19)"/><path d="M44.2,16.6a25.07,25.07,0,0,1,6.1,1.7,27.4,27.4,0,0,1,9.2,6.1,27.9,27.9,0,0,1,6.1,9.2,26.38,26.38,0,0,1,1.7,6.1,1.83,1.83,0,0,0,1.8,1.6h.3a1.81,1.81,0,0,0,1.5-2.1,34.57,34.57,0,0,0-1.9-7,31.93,31.93,0,0,0-6.9-10.5,29.53,29.53,0,0,0-10.5-6.9,28.33,28.33,0,0,0-6.9-1.9,1.76,1.76,0,0,0-2.1,1.5A2.07,2.07,0,0,0,44.2,16.6Z" transform="translate(-1.49 -0.19)"/><path d="M41.1,28.7A15.55,15.55,0,0,1,55.3,42.9a1.86,1.86,0,0,0,1.9,1.7h.2a1.88,1.88,0,0,0,1.7-2,19,19,0,0,0-5.6-12,19.51,19.51,0,0,0-12-5.6,1.88,1.88,0,0,0-2,1.7A1.81,1.81,0,0,0,41.1,28.7Z" transform="translate(-1.49 -0.19)"/><path d="M21.87,61.91a84.83,84.83,0,0,0,20.4,14.9c7.1,3.7,13.4,5.6,19.2,5.6a23.4,23.4,0,0,0,3.8-.3,25.3,25.3,0,0,0,15.3-8.3c2.5-2.8,3.5-5.7,3-8.4a8.85,8.85,0,0,0-3.2-5,18.84,18.84,0,0,0-4.6-2.5,93.66,93.66,0,0,0-14.2-4.3c-1.5-.3-3.6-.9-5.7-.1a8.43,8.43,0,0,0-3.5,2.9c-.3.4-.7.8-1,1.2-.8.8-3,.4-5.7-1.1a45.08,45.08,0,0,1-10.3-8,45.78,45.78,0,0,1-8-10.3c-1.5-2.7-1.9-4.9-1.1-5.7.3-.3.7-.6,1.2-1a8.43,8.43,0,0,0,2.9-3.5,9.1,9.1,0,0,0-.1-5.7A93.66,93.66,0,0,0,26,8.11a17.18,17.18,0,0,0-2.5-4.6,8.37,8.37,0,0,0-5-3.2c-2.6-.5-5.5.5-8.4,3a23.29,23.29,0,0,0-5.5,6.9,25.24,25.24,0,0,0-2.8,8.4c-1,6.8.7,14.3,5.3,23A86.65,86.65,0,0,0,21.87,61.91Z" transform="translate(-1.49 -0.19)"/></svg>