<svg width="84" height="84" viewBox="0 0 84 84" fill="none" xmlns="http://www.w3.org/2000/svg">
<path d="M80.7 27.6C78.5 22.1 75.2 17.2 71 13C66.8 8.8 61.9 5.6 56.4 3.3C53.7 2.2 50.9 1.4 48.1 0.799999C47.1 0.599999 46.1 1.3 45.9 2.3C45.7 3.3 46.4 4.3 47.4 4.5C50 5 52.6 5.7 55 6.7C60 8.7 64.5 11.7 68.3 15.6C72.1 19.4 75.1 23.9 77.2 28.9C78.2 31.4 79 33.9 79.4 36.5C79.6 37.4 80.3 38 81.2 38C81.3 38 81.4 38 81.5 38C82.5 37.8 83.2 36.8 83 35.8C82.6 33.1 81.8 30.3 80.7 27.6Z" fill="black"/>
<path d="M44.2 16.6C46.3 16.9 48.4 17.5 50.3 18.3C53.8 19.7 56.9 21.8 59.5 24.4C62.2 27.1 64.2 30.2 65.6 33.6C66.4 35.6 67 37.6 67.3 39.7C67.4 40.6 68.2 41.3 69.1 41.3C69.2 41.3 69.3 41.3 69.4 41.3C70.4 41.1 71.1 40.2 70.9 39.2C70.5 36.8 69.9 34.5 69 32.2C67.4 28.3 65.1 24.7 62.1 21.7C59.1 18.7 55.6 16.3 51.6 14.8C49.4 13.9 47 13.2 44.7 12.9C43.7 12.7 42.7 13.4 42.6 14.4C42.5 15.4 43.2 16.4 44.2 16.6Z" fill="black"/>
<path d="M41.1 28.7C44.8 29 48.2 30.6 50.8 33.2C53.4 35.8 55 39.2 55.3 42.9C55.4 43.9 56.2 44.6 57.2 44.6C57.3 44.6 57.3 44.6 57.4 44.6C58.4 44.5 59.2 43.6 59.1 42.6C58.7 38.1 56.8 33.8 53.5 30.6C50.3 27.4 46 25.4 41.5 25C40.5 24.9 39.6 25.7 39.5 26.7C39.4 27.7 40.1 28.6 41.1 28.7Z" fill="black"/>
<path d="M21.3 62.7C27.4 68.7 34.2 73.7 41.7 77.6C48.8 81.3 55.1 83.2 60.9 83.2C62.2 83.2 63.5 83.1 64.7 82.9C67.6 82.5 70.4 81.5 73.1 80.1C75.7 78.7 78 76.8 80 74.6C82.5 71.8 83.5 68.9 83 66.2C82.6 64.3 81.5 62.6 79.8 61.2C78.4 60.1 76.7 59.3 75.2 58.7C70.3 56.7 65.3 55.4 61 54.4C59.5 54.1 57.4 53.5 55.3 54.3C53.7 54.9 52.7 56.1 51.8 57.2C51.5 57.6 51.1 58 50.8 58.4C50 59.2 47.8 58.8 45.1 57.3C42 55.7 38.3 52.8 34.8 49.3C31.4 45.9 28.4 42.1 26.8 39C25.3 36.3 24.9 34.1 25.7 33.3C26 33 26.4 32.7 26.9 32.3C28 31.4 29.2 30.4 29.8 28.8C30.6 26.7 30.1 24.5 29.7 23.1C28.7 18.8 27.4 13.8 25.4 8.90001C24.8 7.30001 24 5.70001 22.9 4.30001C21.5 2.60001 19.8 1.40001 17.9 1.10001C15.3 0.600006 12.4 1.60001 9.49998 4.10001C7.29998 6.00001 5.39998 8.30001 3.99998 11C2.59998 13.7 1.59998 16.4 1.19998 19.4C0.199982 26.2 1.89998 33.7 6.49998 42.4C10.4 49.8 15.4 56.7 21.3 62.7ZM4.79998 19.8C5.49998 14.8 8.09998 10.1 11.9 6.80001C13.3 5.60001 15.3 4.30001 17.2 4.70001C18.2 4.90001 19.2 5.60001 20 6.60001C20.8 7.60001 21.3 8.8 21.9 10.3C23.7 15 25 19.9 26 24C26.3 25.4 26.6 26.6 26.2 27.6C26 28.3 25.2 28.8 24.4 29.5C23.9 29.9 23.4 30.3 22.9 30.8C22.1 31.6 21.2 33.1 21.5 35.6C21.7 37.1 22.3 38.9 23.4 40.9C25.2 44.3 28.3 48.3 32.1 52C35.9 55.7 39.8 58.8 43.2 60.7C45.2 61.7 46.9 62.4 48.5 62.6C48.8 62.6 49.1 62.7 49.4 62.7C51.3 62.7 52.6 61.9 53.3 61.2C53.8 60.7 54.2 60.2 54.6 59.7C55.3 58.9 55.8 58.2 56.5 57.9C57.4 57.5 58.7 57.8 60.1 58.1C64.2 59.1 69.1 60.3 73.8 62.2C75.3 62.8 76.5 63.4 77.5 64.1C78.5 64.9 79.2 65.9 79.4 66.9C79.8 68.8 78.4 70.8 77.3 72.2C74 76 69.3 78.6 64.3 79.3C58.3 80.2 51.5 78.6 43.5 74.4C36.3 70.6 29.8 65.9 24 60.2C18.3 54.4 13.6 47.9 9.79998 40.7C5.49998 32.6 3.89998 25.8 4.79998 19.8Z" fill="black"/>
</svg>
