<svg xmlns="http://www.w3.org/2000/svg" viewBox="0 0 70.87 70.87"><defs><style>.cls-1,.cls-2{fill:none;stroke:#000;stroke-linecap:round;stroke-linejoin:round;}.cls-1{stroke-dasharray:4.99 4.99;}</style></defs><title>2020-07-31 ICONE WEB</title><g id="Disegni_e_Immagini_Num_Penna__4" data-name="Disegni e Immagini_Num_Penna__4"><g id="LINE"><line class="cls-1" x1="16.88" y1="53.53" x2="50.8" y2="53.53"/></g><g id="LINE-2" data-name="LINE"><line class="cls-2" x1="50.8" y1="53.53" x2="50.8" y2="19.61"/></g><g id="LINE-3" data-name="LINE"><line class="cls-2" x1="50.8" y1="19.61" x2="16.88" y2="19.61"/></g><g id="LINE-4" data-name="LINE"><line class="cls-1" x1="16.88" y1="19.61" x2="16.88" y2="53.53"/></g><g id="LINE-5" data-name="LINE"><line class="cls-2" x1="46.01" y1="48.74" x2="50.8" y2="53.53"/></g><g id="LINE-6" data-name="LINE"><line class="cls-2" x1="50.8" y1="53.53" x2="55.6" y2="48.74"/></g><g id="LINE-7" data-name="LINE"><line class="cls-2" x1="21.68" y1="14.81" x2="16.88" y2="19.61"/></g><g id="LINE-8" data-name="LINE"><line class="cls-2" x1="16.88" y1="19.61" x2="21.68" y2="24.41"/></g></g><g id="Annotazioni_-_Generale_Num_Penna__86" data-name="Annotazioni - Generale_Num_Penna__86"><path d="M31.42,32.35h1.09v8.18H31.34V34.17l-2.52,3.16H28.6l-2.54-3.16v6.36H24.88V32.35H26l2.72,3.36Z"/><path d="M42.53,41.05l-1.18,1.14A5.41,5.41,0,0,1,40.2,42,9.15,9.15,0,0,1,39,41.54a13.19,13.19,0,0,1-1.65-1,4.11,4.11,0,0,1-2.46-1.41,4.22,4.22,0,0,1,.28-5.69,4.36,4.36,0,0,1,3.16-1.2,4.42,4.42,0,0,1,3.15,1.19,4,4,0,0,1,1.25,3,4.13,4.13,0,0,1-3.4,4.11l.31.12a6.89,6.89,0,0,0,2.09.56A2.56,2.56,0,0,0,42.53,41.05Zm-4.22-7.71a3.1,3.1,0,0,0-2.29.9,3,3,0,0,0-.9,2.24A2.89,2.89,0,0,0,36,38.67a3.35,3.35,0,0,0,4.55,0,2.93,2.93,0,0,0,.93-2.21,3,3,0,0,0-.91-2.22A3.18,3.18,0,0,0,38.31,33.34Z"/></g></svg>