<svg id="Disegni_e_Immagini_Num_Penna__4" data-name="Disegni e Immagini_Num_Penna__4" xmlns="http://www.w3.org/2000/svg" viewBox="0 0 70.87 70.87"><defs><style>.cls-1{fill:none;stroke:#000;stroke-linecap:round;stroke-linejoin:round;}</style></defs><title>2020-07-31 ICONE WEB</title><g id="LINE"><line class="cls-1" x1="39.69" y1="27.68" x2="31.18" y2="27.68"/></g><g id="LINE-2" data-name="LINE"><line class="cls-1" x1="27.34" y1="31.6" x2="28.89" y2="28.98"/></g><g id="LINE-3" data-name="LINE"><line class="cls-1" x1="25.01" y1="34.86" x2="25.47" y2="39.32"/></g><g id="LINE-4" data-name="LINE"><line class="cls-1" x1="29.99" y1="40.51" x2="40.88" y2="40.51"/></g><g id="LINE-5" data-name="LINE"><line class="cls-1" x1="26.52" y1="32.65" x2="25.39" y2="33.78"/></g><g id="LINE-6" data-name="LINE"><line class="cls-1" x1="26.79" y1="40.51" x2="26.79" y2="42.25"/></g><g id="LINE-7" data-name="LINE"><line class="cls-1" x1="27.33" y1="42.79" x2="29.45" y2="42.79"/></g><g id="LINE-8" data-name="LINE"><line class="cls-1" x1="29.99" y1="40.51" x2="29.99" y2="42.25"/></g><g id="LINE-9" data-name="LINE"><line class="cls-1" x1="43.53" y1="31.6" x2="41.98" y2="28.98"/></g><g id="LINE-10" data-name="LINE"><line class="cls-1" x1="45.86" y1="34.86" x2="45.4" y2="39.32"/></g><g id="LINE-11" data-name="LINE"><line class="cls-1" x1="44.34" y1="32.65" x2="45.47" y2="33.78"/></g><g id="LINE-12" data-name="LINE"><line class="cls-1" x1="44.07" y1="40.51" x2="44.07" y2="42.25"/></g><g id="LINE-13" data-name="LINE"><line class="cls-1" x1="43.54" y1="42.79" x2="41.41" y2="42.79"/></g><g id="LINE-14" data-name="LINE"><line class="cls-1" x1="40.88" y1="40.51" x2="40.88" y2="42.25"/></g><g id="LINE-15" data-name="LINE"><line class="cls-1" x1="17.87" y1="43.19" x2="52.99" y2="43.19"/></g><g id="ARC"><path class="cls-1" d="M31.18,27.68A2.68,2.68,0,0,0,28.89,29"/></g><g id="ARC-2" data-name="ARC"><path class="cls-1" d="M26.52,32.65a5.51,5.51,0,0,0,.82-1"/></g><g id="ARC-3" data-name="ARC"><path class="cls-1" d="M25.39,33.78A1.34,1.34,0,0,0,25,34.86"/></g><g id="ARC-4" data-name="ARC"><path class="cls-1" d="M25.47,39.32a1.32,1.32,0,0,0,1.32,1.19"/></g><g id="ARC-5" data-name="ARC"><path class="cls-1" d="M26.79,42.25a.54.54,0,0,0,.54.54"/></g><g id="ARC-6" data-name="ARC"><path class="cls-1" d="M29.45,42.79a.54.54,0,0,0,.54-.54"/></g><g id="ARC-7" data-name="ARC"><path class="cls-1" d="M42,29a2.68,2.68,0,0,0-2.29-1.3"/></g><g id="ARC-8" data-name="ARC"><path class="cls-1" d="M43.53,31.6a5.88,5.88,0,0,0,.81,1"/></g><g id="ARC-9" data-name="ARC"><path class="cls-1" d="M45.86,34.86a1.32,1.32,0,0,0-.39-1.08"/></g><g id="ARC-10" data-name="ARC"><path class="cls-1" d="M44.07,40.51a1.33,1.33,0,0,0,1.33-1.19"/></g><g id="ARC-11" data-name="ARC"><path class="cls-1" d="M43.54,42.79a.54.54,0,0,0,.53-.54"/></g><g id="ARC-12" data-name="ARC"><path class="cls-1" d="M40.88,42.25a.54.54,0,0,0,.53.54"/></g></svg>