<svg width="68" height="84" viewBox="0 0 68 84" fill="none" xmlns="http://www.w3.org/2000/svg">
<path d="M0.799988 73.5C0.799988 79.9 17.9 83.4 34 83.4C50.1 83.4 67.2 79.9 67.2 73.5C67.2 67.1 54.4 64.9 43.2 64L44.1 45.3H51.2L52.7 25.6C52.7806 24.4941 52.636 23.3833 52.2751 22.3348C51.9141 21.2863 51.3443 20.322 50.6 19.5C49.8419 18.6992 48.9265 18.0637 47.9112 17.6335C46.8959 17.2033 45.8026 16.9876 44.7 17H38.9C40.1268 16.1698 41.1324 15.0528 41.8295 13.7457C42.5266 12.4387 42.894 10.9813 42.9 9.50001C42.9 7.13958 41.9623 4.87583 40.2932 3.20676C38.6242 1.53768 36.3604 0.600006 34 0.600006C31.6396 0.600006 29.3758 1.53768 27.7067 3.20676C26.0377 4.87583 25.1 7.13958 25.1 9.50001C25.1059 10.9813 25.4734 12.4387 26.1705 13.7457C26.8676 15.0528 27.8732 16.1698 29.1 17H23.3C22.1974 16.9876 21.1041 17.2033 20.0888 17.6335C19.0734 18.0637 18.158 18.6992 17.4 19.5C16.6557 20.322 16.0858 21.2863 15.7249 22.3348C15.3639 23.3833 15.2194 24.4941 15.3 25.6L16.8 45.3H23.9L24.8 64C13.5 64.9 0.799988 67.9 0.799988 73.5ZM27.1 9.50001C27.1 8.13531 27.5047 6.80127 28.2628 5.66657C29.021 4.53187 30.0987 3.64748 31.3595 3.12524C32.6203 2.60299 34.0076 2.46635 35.3461 2.73259C36.6846 2.99882 37.914 3.65599 38.879 4.62097C39.844 5.58595 40.5012 6.81541 40.7674 8.15388C41.0336 9.49235 40.897 10.8797 40.3748 12.1405C39.8525 13.4013 38.9681 14.479 37.8334 15.2371C36.6987 15.9953 35.3647 16.4 34 16.4C32.17 16.4 30.415 15.673 29.121 14.379C27.827 13.085 27.1 11.33 27.1 9.50001V9.50001ZM65.2 73.5C65.2 77.2 52.4 81.4 34 81.4C15.6 81.4 2.79999 77.2 2.79999 73.5C2.79999 69.8 11.1 67.1 24.9 66L25.4 75.7H42.6L43.1 66C56.9 67.1 65.2 70.7 65.2 73.5ZM18.6 43.3L17.3 25.4C17.2038 24.5775 17.298 23.7438 17.5755 22.9635C17.8529 22.1832 18.3061 21.4772 18.9 20.9C19.4635 20.2979 20.145 19.8185 20.902 19.4916C21.6591 19.1647 22.4754 18.9973 23.3 19H44.7C45.5246 18.9973 46.3409 19.1647 47.0979 19.4916C47.855 19.8185 48.5365 20.2979 49.1 20.9C49.6939 21.4772 50.1471 22.1832 50.4245 22.9635C50.702 23.7438 50.7962 24.5775 50.7 25.4L49.4 43.3H44.1L44.7 32.5H42.7L40.7 73.8H35V50.6H33V73.7H27.3L25.3 32.4H23.3L23.9 43.2L18.6 43.3Z" fill="black"/>
</svg>
