<svg id="Disegni_e_Immagini_Num_Penna__4" data-name="Disegni e Immagini_Num_Penna__4" xmlns="http://www.w3.org/2000/svg" viewBox="0 0 70.87 70.87"><defs><style>.cls-1{fill:none;stroke:#000;stroke-linecap:round;stroke-linejoin:round;stroke-width:0.7px;}</style></defs><title>2020-07-08 ICONE WEB</title><g id="LINE"><line class="cls-1" x1="20.74" y1="50.56" x2="54.1" y2="50.56"/></g><g id="LINE-2" data-name="LINE"><line class="cls-1" x1="22.36" y1="27.61" x2="40.66" y2="27.61"/></g><g id="LINE-3" data-name="LINE"><line class="cls-1" x1="18.76" y1="48.3" x2="21.37" y2="28.48"/></g><g id="LINE-4" data-name="LINE"><line class="cls-1" x1="56.08" y1="48.3" x2="53.47" y2="28.48"/></g><g id="LINE-5" data-name="LINE"><line class="cls-1" x1="19.53" y1="42.44" x2="40.71" y2="29.01"/></g><g id="LINE-6" data-name="LINE"><line class="cls-1" x1="18.84" y1="47.68" x2="29.12" y2="41.15"/></g><g id="LINE-7" data-name="LINE"><line class="cls-1" x1="51.51" y1="50.56" x2="32.91" y2="38.75"/></g><g id="LINE-8" data-name="LINE"><line class="cls-1" x1="43.95" y1="50.56" x2="29.12" y2="41.15"/></g><g id="LINE-9" data-name="LINE"><line class="cls-1" x1="49.94" y1="27.61" x2="52.48" y2="27.61"/></g><g id="LINE-10" data-name="LINE"><line class="cls-1" x1="49.93" y1="27.95" x2="50.47" y2="27.61"/></g><g id="LINE-11" data-name="LINE"><line class="cls-1" x1="32.91" y1="38.75" x2="40.9" y2="33.68"/></g><g id="LINE-12" data-name="LINE"><line class="cls-1" x1="40.54" y1="24.2" x2="40.86" y2="33.5"/></g><g id="LINE-13" data-name="LINE"><line class="cls-1" x1="41.28" y1="34.02" x2="41.83" y2="34.16"/></g><g id="LINE-14" data-name="LINE"><line class="cls-1" x1="42.85" y1="35.37" x2="43.39" y2="40.84"/></g><g id="LINE-15" data-name="LINE"><line class="cls-1" x1="44.76" y1="42.09" x2="45.84" y2="42.09"/></g><g id="LINE-16" data-name="LINE"><line class="cls-1" x1="41.91" y1="22.77" x2="48.68" y2="22.77"/></g><g id="LINE-17" data-name="LINE"><line class="cls-1" x1="50.06" y1="24.2" x2="49.73" y2="33.5"/></g><g id="LINE-18" data-name="LINE"><line class="cls-1" x1="49.32" y1="34.02" x2="48.76" y2="34.16"/></g><g id="LINE-19" data-name="LINE"><line class="cls-1" x1="47.74" y1="35.37" x2="47.21" y2="40.84"/></g><g id="ARC"><path class="cls-1" d="M22.36,27.61a1,1,0,0,0-1,.87"/></g><g id="ARC-2" data-name="ARC"><path class="cls-1" d="M18.76,48.3a2,2,0,0,0,1.72,2.24l.26,0"/></g><g id="ARC-3" data-name="ARC"><path class="cls-1" d="M54.1,50.56a2,2,0,0,0,2-2,2.28,2.28,0,0,0,0-.26"/></g><g id="ARC-4" data-name="ARC"><path class="cls-1" d="M53.47,28.48a1,1,0,0,0-1-.87"/></g><g id="ARC-5" data-name="ARC"><path class="cls-1" d="M42.85,35.37a1.38,1.38,0,0,0-1-1.21"/></g><g id="ARC-6" data-name="ARC"><path class="cls-1" d="M40.86,33.5a.56.56,0,0,0,.42.52"/></g><g id="ARC-7" data-name="ARC"><path class="cls-1" d="M43.39,40.84a1.38,1.38,0,0,0,1.37,1.25"/></g><g id="ARC-8" data-name="ARC"><path class="cls-1" d="M48.76,34.16a1.4,1.4,0,0,0-1,1.21"/></g><g id="ARC-9" data-name="ARC"><path class="cls-1" d="M49.32,34a.55.55,0,0,0,.41-.52"/></g><g id="ARC-10" data-name="ARC"><path class="cls-1" d="M45.84,42.09a1.38,1.38,0,0,0,1.37-1.25"/></g><g id="CIRCLE"><path class="cls-1" d="M42,19.46a3.31,3.31,0,1,1,3.31,3.31A3.32,3.32,0,0,1,42,19.46Z"/></g><g id="ARC-11" data-name="ARC"><path class="cls-1" d="M50.06,24.2a1.38,1.38,0,0,0-1.33-1.43h0"/></g><g id="ARC-12" data-name="ARC"><path class="cls-1" d="M41.91,22.77a1.38,1.38,0,0,0-1.38,1.38v.05"/></g></svg>