<svg xmlns="http://www.w3.org/2000/svg" viewBox="0 0 70.87 70.87"><defs><style>.cls-1{fill:none;stroke:#000;stroke-linecap:round;stroke-linejoin:round;}</style></defs><title>2020-07-31 ICONE WEB</title><g id="Disegni_e_Immagini_Num_Penna__4" data-name="Disegni e Immagini_Num_Penna__4"><g id="LINE"><line class="cls-1" x1="25.71" y1="45.7" x2="27.48" y2="45.7"/></g><g id="LINE-2" data-name="LINE"><line class="cls-1" x1="43.37" y1="45.7" x2="43.37" y2="28.04"/></g><g id="LINE-3" data-name="LINE"><line class="cls-1" x1="43.37" y1="28.04" x2="25.71" y2="28.04"/></g><g id="LINE-4" data-name="LINE"><line class="cls-1" x1="25.71" y1="28.04" x2="25.71" y2="45.7"/></g><g id="LINE-5" data-name="LINE"><line class="cls-1" x1="27.48" y1="45.7" x2="27.48" y2="40.4"/></g><g id="LINE-6" data-name="LINE"><line class="cls-1" x1="32.78" y1="45.7" x2="43.37" y2="45.7"/></g><g id="LINE-7" data-name="LINE"><line class="cls-1" x1="36.09" y1="45.7" x2="36.09" y2="28.04"/></g><g id="LINE-8" data-name="LINE"><line class="cls-1" x1="36.09" y1="39.52" x2="43.37" y2="39.52"/></g><g id="LINE-9" data-name="LINE"><line class="cls-1" x1="36.09" y1="33.78" x2="43.37" y2="33.78"/></g><g id="LINE-10" data-name="LINE"><line class="cls-1" x1="36.09" y1="34.88" x2="25.71" y2="34.88"/></g><g id="ARC"><path class="cls-1" d="M32.78,45.7a5.3,5.3,0,0,0-5.3-5.3"/></g></g><g id="Disegni_e_Immagini_Num_Penna__1" data-name="Disegni e Immagini_Num_Penna__1"><g id="LINE-11" data-name="LINE"><line class="cls-1" x1="44.31" y1="16.64" x2="49.93" y2="22.26"/></g><g id="LINE-12" data-name="LINE"><line class="cls-1" x1="44.31" y1="16.64" x2="44.31" y2="22.26"/></g><g id="LINE-13" data-name="LINE"><line class="cls-1" x1="44.31" y1="22.26" x2="49.93" y2="22.26"/></g><g id="LWPOLYLINE"><polygon class="cls-1" points="19.52 16.64 44.31 16.64 49.93 22.26 49.93 56.28 19.52 56.28 19.52 16.64"/></g></g></svg>