<svg xmlns="http://www.w3.org/2000/svg" viewBox="0 0 70.87 70.87"><defs><style>.cls-1{fill:none;stroke:#000;stroke-linecap:round;stroke-linejoin:round;stroke-width:0.7px;}.cls-2{font-size:12.03px;font-family:MyriadPro-Regular, Myriad Pro;}</style></defs><title>2020-07-08 ICONE WEB</title><g id="Disegni_e_Immagini_Num_Penna__4" data-name="Disegni e Immagini_Num_Penna__4"><g id="LINE"><line class="cls-1" x1="31.84" y1="40.12" x2="38.47" y2="46.75"/></g><g id="LINE-2" data-name="LINE"><line class="cls-1" x1="38.47" y1="46.75" x2="31.84" y2="53.38"/></g><g id="LINE-3" data-name="LINE"><line class="cls-1" x1="31.84" y1="40.12" x2="31.84" y2="44.25"/></g><g id="LINE-4" data-name="LINE"><line class="cls-1" x1="38.33" y1="44.26" x2="40.81" y2="46.75"/></g><g id="LINE-5" data-name="LINE"><line class="cls-1" x1="40.81" y1="46.75" x2="38.62" y2="48.95"/></g><g id="ELLIPSE"><path class="cls-1" d="M25.79,29.26c-9.71,2.74-13.38,9.13-8.2,14.27,2.9,2.88,8.17,4.89,14.25,5.43"/></g><g id="ELLIPSE-2" data-name="ELLIPSE"><path class="cls-1" d="M25.79,29.26c-8.21,2.42-10.67,7.48-5.5,11.31,2.6,1.92,6.78,3.25,11.55,3.68"/></g><g id="ELLIPSE-3" data-name="ELLIPSE"><path class="cls-1" d="M38.33,44.26c9.54-.81,15.86-5.09,14.11-9.54-.89-2.26-3.76-4.23-7.91-5.46"/></g><g id="ELLIPSE-4" data-name="ELLIPSE"><path class="cls-1" d="M38.62,49c10.83-1,18.06-6.48,16.15-12.22-1.06-3.19-4.84-5.94-10.24-7.47"/></g></g><g id="Annotazioni_-_Generale_Num_Penna__86" data-name="Annotazioni - Generale_Num_Penna__86"><g id="MTEXT"><text class="cls-2" transform="translate(26.54 28.26) scale(0.97 1)">360°</text></g></g></svg>