<svg width="78" height="82" viewBox="0 0 78 82" fill="none" xmlns="http://www.w3.org/2000/svg">
<path d="M38.288 18.61H50.843C51.107 18.61 51.36 18.506 51.547 18.32L54.768 15.125L57.99 18.32C58.177 18.506 58.43 18.61 58.694 18.61H71.249C71.801 18.61 72.249 18.162 72.249 17.61V1C72.249 0.448 71.801 0 71.249 0H38.288C37.736 0 37.288 0.448 37.288 1V17.61C37.288 18.163 37.736 18.61 38.288 18.61ZM39.288 2H70.249V16.61H59.106L55.473 13.007C55.083 12.62 54.454 12.62 54.065 13.007L50.432 16.61H39.288V2Z" fill="black"/>
<path d="M46.043 5.009C43.813 5.009 41.998 6.824 41.998 9.054C41.998 11.285 43.813 13.1 46.043 13.1C48.274 13.1 50.089 11.285 50.089 9.054C50.089 6.824 48.274 5.009 46.043 5.009ZM46.043 11.101C44.915 11.101 43.998 10.183 43.998 9.055C43.998 7.927 44.915 7.01 46.043 7.01C47.171 7.01 48.089 7.927 48.089 9.055C48.089 10.183 47.171 11.101 46.043 11.101Z" fill="black"/>
<path d="M63.951 13.101C66.181 13.101 67.996 11.286 67.996 9.05499C67.996 6.82499 66.181 5.00999 63.951 5.00999C61.72 5.00999 59.905 6.82499 59.905 9.05499C59.906 11.286 61.72 13.101 63.951 13.101ZM63.951 7.00899C65.079 7.00899 65.996 7.92599 65.996 9.05399C65.996 10.182 65.079 11.1 63.951 11.1C62.823 11.1 61.905 10.182 61.905 9.05399C61.905 7.92599 62.824 7.00899 63.951 7.00899Z" fill="black"/>
<path d="M77.551 31.61C77.55 31.576 77.551 31.543 77.546 31.51C77.544 31.492 77.547 31.475 77.544 31.458C77.525 31.36 77.492 31.267 77.446 31.182C77.443 31.177 77.439 31.174 77.437 31.169C77.384 31.072 77.313 30.989 77.232 30.915C77.207 30.892 77.18 30.873 77.152 30.853C77.079 30.799 76.999 30.756 76.913 30.723C76.892 30.715 76.878 30.699 76.856 30.692C76.846 30.689 76.837 30.692 76.827 30.689C76.814 30.685 76.803 30.677 76.789 30.674L70.329 29.163C70.328 29.163 70.326 29.163 70.325 29.163C70.323 29.163 70.322 29.161 70.32 29.161L57.386 26.265C57.169 26.216 56.939 26.242 56.737 26.339L52.807 28.215L46.149 26.657L38.245 24.6C38.057 24.551 37.861 24.558 37.679 24.619L27.576 27.965C27.575 27.965 27.574 27.966 27.572 27.967C27.571 27.967 27.569 27.967 27.568 27.968L0.672021 37.104C0.563021 37.141 0.467021 37.2 0.380021 37.269C0.355021 37.288 0.335021 37.31 0.312021 37.332C0.247021 37.394 0.192021 37.462 0.146021 37.539C0.130021 37.565 0.113021 37.587 0.100021 37.614C0.052021 37.712 0.015021 37.816 0.00102101 37.928C2.1006e-05 37.932 0.00202101 37.937 0.00102101 37.941C-0.000978994 37.956 0.00302101 37.971 0.00202101 37.986C-0.00497899 38.093 0.00702101 38.197 0.034021 38.299C0.038021 38.315 0.034021 38.33 0.039021 38.345L4.67202 53.317C4.73002 53.506 4.84402 53.674 4.99802 53.798L39.423 81.68C39.424 81.681 39.425 81.681 39.426 81.682C39.505 81.746 39.595 81.799 39.694 81.837C39.699 81.839 39.704 81.838 39.708 81.84C39.819 81.881 39.935 81.904 40.052 81.904C40.196 81.904 40.337 81.87 40.467 81.81C40.472 81.808 40.477 81.809 40.482 81.807C40.591 81.755 40.683 81.679 40.764 81.595C40.773 81.586 40.786 81.583 40.794 81.573L73.237 45.539C73.334 45.431 73.407 45.303 73.45 45.164L77.517 31.94C77.523 31.92 77.518 31.9 77.523 31.88C77.546 31.793 77.555 31.703 77.551 31.61ZM53.352 30.17L57.287 28.292L69.884 31.113C69.885 31.113 69.885 31.113 69.886 31.113L74.157 32.112L73.832 32.34C73.817 32.351 73.809 32.368 73.795 32.379C73.78 32.391 73.761 32.394 73.746 32.407L66.773 38.533L63.207 37.418C62.882 37.317 62.526 37.387 62.264 37.608L57.36 41.741C57.099 41.961 56.968 42.3 57.013 42.639C57.059 42.978 57.275 43.27 57.585 43.413L59.966 44.511L50.122 53.159L28.911 42.502L45.588 34.052C45.94 33.873 46.154 33.505 46.134 33.111C46.114 32.716 45.865 32.371 45.497 32.228L41.409 30.643L46 28.675L52.694 30.241C52.914 30.292 53.146 30.268 53.352 30.17ZM61.414 42.976L59.852 42.256L63.134 39.49L64.814 40.015L61.414 42.976ZM39.919 62.086L36.42 59.948L37.815 58.488L39.45 59.442C39.809 59.651 40.261 59.616 40.584 59.354L43.129 57.286L44.262 57.963L39.919 62.086ZM46.076 56.716L43.556 55.21C43.194 54.995 42.738 55.027 42.412 55.293L39.86 57.366L38.141 56.364C37.741 56.131 37.234 56.202 36.914 56.537L34.8 58.747L18.139 47.96L26.693 43.626L48.502 54.584L46.076 56.716ZM38.027 26.609L42.828 27.858L35.969 30.798L30.932 28.959L38.027 26.609ZM27.878 29.974L35.655 32.813C35.766 32.854 35.882 32.874 35.998 32.874C36.001 32.874 36.004 32.872 36.007 32.872C36.133 32.871 36.258 32.848 36.376 32.8L38.838 31.792L42.682 33.282L16.239 46.68L3.27602 38.332L27.878 29.974ZM2.76002 40.378L15.455 48.554C15.505 48.604 15.545 48.662 15.607 48.702L33.96 60.586C34.043 60.755 34.155 60.907 34.319 61.008L39.052 63.901V78.81L6.49202 52.437L2.76002 40.378ZM71.604 44.367L41.052 78.3V63.792L74.729 34.206L71.604 44.367Z" fill="black"/>
</svg>
