<svg xmlns="http://www.w3.org/2000/svg" viewBox="0 0 70.87 70.87"><defs><style>.cls-1{fill:none;stroke:#000;stroke-linecap:round;stroke-linejoin:round;}</style></defs><title>2020-07-31 ICONE WEB</title><g id="Disegni_e_Immagini_Num_Penna__4" data-name="Disegni e Immagini_Num_Penna__4"><g id="ELLIPSE"><path class="cls-1" d="M26.94,29.26c-9.36,2.4-12.17,7.42-6.27,11.21,3,1.91,7.73,3.23,13.17,3.65"/></g><g id="ELLIPSE-2" data-name="ELLIPSE"><path class="cls-1" d="M36.68,44.12c10.64-.81,17.68-5,15.73-9.45-1-2.24-4.19-4.2-8.82-5.41"/></g><g id="LINE"><line class="cls-1" x1="29.05" y1="48.92" x2="33.84" y2="44.12"/></g><g id="LINE-2" data-name="LINE"><line class="cls-1" x1="33.84" y1="44.12" x2="29.05" y2="39.32"/></g></g><g id="Annotazioni_-_Generale_Num_Penna__86" data-name="Annotazioni - Generale_Num_Penna__86"><path d="M29.26,22.6h.07a1.82,1.82,0,0,0,1.14-.31,1.13,1.13,0,0,0,.39-.92,1.15,1.15,0,0,0-.38-.89,1.44,1.44,0,0,0-1-.34,3,3,0,0,0-1.38.4V19.42a3.25,3.25,0,0,1,1.52-.36,2.49,2.49,0,0,1,1.74.59,2.4,2.4,0,0,1,.39,2.67A2.1,2.1,0,0,1,31,23a1.65,1.65,0,0,1,.68.46,2.06,2.06,0,0,1,.34.66,2.81,2.81,0,0,1,.12.82,2.4,2.4,0,0,1-.7,1.78,2.36,2.36,0,0,1-1.76.7A3.68,3.68,0,0,1,27.9,27V25.73a3.2,3.2,0,0,0,1.75.58,1.26,1.26,0,0,0,.93-.35,1.29,1.29,0,0,0,.35-.93,1.33,1.33,0,0,0-.29-.85,1,1,0,0,0-.38-.3,3.49,3.49,0,0,0-.9-.19h-.1Z"/><path d="M36.59,19.16l.12-.09.69.89a7.14,7.14,0,0,0-1.52,1.33A5.17,5.17,0,0,0,35,23a2.76,2.76,0,0,1,1.27-.33,2.11,2.11,0,0,1,1.58.68A2.37,2.37,0,0,1,38.45,25a2.4,2.4,0,0,1-.7,1.74,2.3,2.3,0,0,1-1.71.72,2.28,2.28,0,0,1-1.82-.81,3.18,3.18,0,0,1-.7-2.13,5.65,5.65,0,0,1,.36-2,6.46,6.46,0,0,1,1-1.82A8.23,8.23,0,0,1,36.59,19.16Zm-1.88,5a3.89,3.89,0,0,0-.05.62,1.68,1.68,0,0,0,.39,1.14,1.3,1.3,0,0,0,1,.44A1.21,1.21,0,0,0,37,26a1.33,1.33,0,0,0,.36-1,1.29,1.29,0,0,0-.38-1,1.43,1.43,0,0,0-1-.37,1.81,1.81,0,0,0-.58.1A3.57,3.57,0,0,0,34.71,24.18Z"/><path d="M41.82,19.07a2.1,2.1,0,0,1,1.81,1.19,5.63,5.63,0,0,1,.72,3,5.71,5.71,0,0,1-.72,3,2.13,2.13,0,0,1-1.86,1.17,2.11,2.11,0,0,1-1.86-1.15,5.7,5.7,0,0,1-.7-3,5.72,5.72,0,0,1,.72-3A2.18,2.18,0,0,1,41.82,19.07Zm0,1.12h-.06c-.44,0-.78.27-1,.83a5.33,5.33,0,0,0-.39,2.24,5.62,5.62,0,0,0,.38,2.28,1.17,1.17,0,0,0,1,.83c.44,0,.79-.28,1.05-.83a5.51,5.51,0,0,0,.38-2.24A5.68,5.68,0,0,0,42.82,21Q42.45,20.19,41.83,20.19Z"/><path d="M45.42,20.25a1.57,1.57,0,0,1,.47-1.14A1.52,1.52,0,0,1,47,18.63a1.49,1.49,0,0,1,1.11.48,1.66,1.66,0,0,1,0,2.29,1.49,1.49,0,0,1-1.11.48,1.52,1.52,0,0,1-1.13-.48A1.58,1.58,0,0,1,45.42,20.25Zm.63,0a1,1,0,0,0,.28.71.94.94,0,0,0,.69.29.92.92,0,0,0,.67-.29,1,1,0,0,0,0-1.41.89.89,0,0,0-.67-.28.94.94,0,0,0-.69.28A1,1,0,0,0,46.05,20.25Z"/></g></svg>